<svg xmlns="http://www.w3.org/2000/svg" version="1.1" xmlns:xlink="http://www.w3.org/1999/xlink" xmlns:svgjs="http://svgjs.dev/svgjs" width="1500" height="935" viewBox="0 0 1500 935"><g transform="matrix(1,0,0,1,-0.9090909090909918,0.3785425101214628)"><svg viewBox="0 0 396 247" data-background-color="#dedede" preserveAspectRatio="xMidYMid meet" height="935" width="1500" xmlns="http://www.w3.org/2000/svg" xmlns:xlink="http://www.w3.org/1999/xlink"><g id="tight-bounds" transform="matrix(1,0,0,1,0.2400000000000091,-0.09999999999999432)"><svg viewBox="0 0 395.52 247.2" height="247.2" width="395.52"><g><svg></svg></g><g><svg viewBox="0 0 395.52 247.2" height="247.2" width="395.52"><mask id="9ef4aa50-e4f7-4eed-a0ba-4bcd450cd241"><rect width="395.52" height="247.2" fill="white"></rect><g transform="matrix(1,0,0,1,0,100.58338214891322)" id="clone"><svg viewBox="0 0 395.52 46.03323570217357" height="46.03323570217357" width="395.52"><g><svg viewBox="0 0 395.52 46.03323570217357" height="46.03323570217357" width="395.52"><g><svg viewBox="0 0 395.52 46.03323570217357" height="46.03323570217357" width="395.52"><g><svg viewBox="0 0 395.52 46.03323570217357" height="46.03323570217357" width="395.52"><g id="SvgjsG1063"><svg viewBox="0 0 395.52 46.03323570217357" height="46.03323570217357" width="395.52" id="SvgjsSvg1062"><g><svg viewBox="0 0 395.52 46.03323570217357" height="46.03323570217357" width="395.52"><g transform="matrix(1,0,0,1,0,0)"><svg width="395.52" viewBox="-13.8 -35 325.33 38.75" height="46.03323570217357" data-palette-color="#374151"><path d="M37.1-18.2L34.15-1.5Q28.05 0.75 21.9 0.75 15.75 0.75 13.03-1.7 10.3-4.15 10.3-9.25L10.3-9.25Q10.3-11.4 11-15.6L11-15.6Q12.5-24.3 16.3-28.15 20.1-32 28.9-32L28.9-32Q30.8-32 33.65-31.6 36.5-31.2 37.85-30.7L37.85-30.7 35.1-23.05Q31.35-23.75 28.23-23.75 25.1-23.75 23.75-23.25 22.4-22.75 22.15-21.25L22.15-21.25 19.7-7.1 22.85-7.1Q24.55-7.1 25.38-7.48 26.2-7.85 26.45-9.2L26.45-9.2 26.7-10.55 24.3-10.55 25.65-18.2 37.1-18.2ZM9.75-16.85L9.6-15.85Q9.5-15.45 9.4-14.75L9.4-14.75-10.25-16.85 9.75-16.85ZM-10.8-12.05L9.05-12.05Q8.9-10.9 8.9-9.95L8.9-9.95-10.8-12.05ZM-9.05-21.65L10.95-21.65 10.35-19.6-9.05-21.65ZM-10.15-7.25L8.95-7.25Q9.15-5.85 9.3-5.15L9.3-5.15-10.15-7.25ZM-6.7-26.45L13-26.45Q12.3-25.15 12-24.45L12-24.45-6.7-26.45ZM-5.35-2.4L10.45-2.4Q11.1-1.25 11.95-0.55L11.95-0.55-5.35-2.4ZM0.2-31.25L17.75-31.25Q16.3-30.35 15.5-29.6L15.5-29.6 0.2-31.25ZM57.3 0L48.55 0 53.15-26.45 61.95-26.45 57.3 0ZM47.3-2.4L46.9-0.15 25.7-2.4 47.3-2.4ZM49-12.05L48.6-9.8 27.4-12.05 49-12.05ZM49.85-16.85L49.45-14.6 28.25-16.85 49.85-16.85ZM50.7-21.65L50.3-19.4 29.1-21.65 50.7-21.65ZM51.5-26.45L51.15-24.2 29.95-26.45 51.5-26.45ZM48.15-7.25L47.75-5 26.55-7.25 48.15-7.25ZM95.5-26.45L94.15-18.95 88.75-18.95 85.45 0 76.65 0 79.95-18.95 74.4-18.95 75.75-26.45 95.5-26.45ZM75.55-2.4L75.15-0.15 53.95-2.4 75.55-2.4ZM77.25-12.05L76.85-9.8 55.65-12.05 77.25-12.05ZM78.1-16.85L77.7-14.6 56.5-16.85 78.1-16.85ZM73.3-21.65L72.9-19.4 51.7-21.65 73.3-21.65ZM74.1-26.45L73.75-24.2 52.55-26.45 74.1-26.45ZM76.4-7.25L76-5 54.8-7.25 76.4-7.25ZM118.49-6.2L118.49-6.2 113.64-6.2 112.54 0 104.14 0 108.74-26.45 121.44-26.45Q128.69-26.45 128.69-19.6L128.69-19.6Q128.69-16.5 127.79-13.9 126.89-11.3 125.84-9.8 124.79-8.3 122.87-7.25 120.94-6.2 118.49-6.2ZM118.99-14.4L119.59-17.8Q119.59-17.85 119.64-18.1L119.64-18.1Q119.64-19.15 117.49-19.15L117.49-19.15 115.89-19.15 114.84-12.95 116.39-12.95Q117.54-12.95 118.19-13.23 118.84-13.5 118.99-14.4L118.99-14.4ZM102.89-2.4L102.49-0.15 81.29-2.4 102.89-2.4ZM104.59-12.05L104.19-9.8 82.99-12.05 104.59-12.05ZM105.44-16.85L105.04-14.6 83.84-16.85 105.44-16.85ZM106.29-21.65L105.89-19.4 84.69-21.65 106.29-21.65ZM107.09-26.45L106.74-24.2 85.54-26.45 107.09-26.45ZM103.74-7.25L103.34-5 82.14-7.25 103.74-7.25ZM157.49-15.55L156.64-10.75 149.19-10.75 148.59-7.35 157.84-7.35 156.54 0 138.89 0 143.49-26.45 161.09-26.45 158.74-18.95 150.59-18.95 149.99-15.55 157.49-15.55ZM137.64-2.4L137.24-0.15 116.04-2.4 137.64-2.4ZM139.34-12.05L138.94-9.8 117.74-12.05 139.34-12.05ZM140.19-16.85L139.79-14.6 118.59-16.85 140.19-16.85ZM141.04-21.65L140.64-19.4 119.44-21.65 141.04-21.65ZM141.84-26.45L141.49-24.2 120.29-26.45 141.84-26.45ZM138.49-7.25L138.09-5 116.89-7.25 138.49-7.25ZM176.29-26.45L188.99-26.45Q196.29-26.45 196.29-19.85L196.29-19.85Q196.29-16.85 195.09-13.63 193.89-10.4 191.04-8.8L191.04-8.8 193.89 0 184.54 0 182.64-7.7 181.44-7.7 180.09 0 171.69 0 176.29-26.45ZM186.84-16.05L187.14-17.8Q187.14-17.85 187.19-18.3L187.19-18.3Q187.19-19.15 184.54-19.15L184.54-19.15 183.44-19.15 182.64-14.55 184.24-14.55Q186.54-14.55 186.84-16.05L186.84-16.05ZM170.44-2.4L170.04-0.15 148.84-2.4 170.44-2.4ZM172.14-12.05L171.74-9.8 150.54-12.05 172.14-12.05ZM172.99-16.85L172.59-14.6 151.39-16.85 172.99-16.85ZM173.84-21.65L173.44-19.4 152.24-21.65 173.84-21.65ZM174.64-26.45L174.29-24.2 153.09-26.45 174.64-26.45ZM171.29-7.25L170.89-5 149.69-7.25 171.29-7.25ZM206.54-0.15L185.64-2.4 207.24-2.4 206.54-0.15ZM189.49-21.65L211.04-21.65Q210.74-20.85 210.39-19.4L210.39-19.4 189.49-21.65ZM209.79-15L209.79-15 209.79-14.6 188.59-16.85 209.89-16.85Q209.79-15.65 209.79-15ZM208.84-7.25L208.14-5.05 187.29-7.25 208.84-7.25ZM192.94-26.45L214.49-26.45Q213.14-25.45 212.44-24.35L212.44-24.35 192.94-26.45ZM190.54-12.05L210.24-12.05Q210.69-10.75 211.69-9.8L211.69-9.8 190.54-12.05ZM232.59-25.9L230.19-18.6Q226.79-19.4 224.39-19.4 221.99-19.4 220.84-19.25L220.84-19.25 220.59-17.8 223.09-17.5Q231.14-16.45 231.14-10.85L231.14-10.85Q231.14-10.2 230.84-8.43 230.54-6.65 229.84-5 229.14-3.35 228.06-2.33 226.99-1.3 225.96-0.68 224.94-0.05 223.34 0.2L223.34 0.2Q220.84 0.6 216.66 0.6 212.49 0.6 208.24-0.55L208.24-0.55 210.69-7.95Q214.59-6.85 217.51-6.85 220.44-6.85 221.64-7L221.64-7 221.89-8.6 218.74-8.95Q214.69-9.4 212.99-10.85 211.29-12.3 211.29-15L211.29-15Q211.29-16 211.54-17.5L211.54-17.5Q212.54-22.85 215.14-24.9 217.74-26.95 223.06-26.95 228.39-26.95 232.59-25.9L232.59-25.9ZM258.88-26.95L258.88-26.95Q264.28-26.95 266.58-24.88 268.88-22.8 268.88-18.4L268.88-18.4Q268.88-16.25 268.33-13.2L268.33-13.2Q267.08-6 263.93-2.7 260.78 0.6 254.03 0.6L254.03 0.6Q248.73 0.6 246.48-1.48 244.23-3.55 244.23-7.9L244.23-7.9Q244.23-10.15 244.78-13.2L244.78-13.2Q246.03-20.4 249.13-23.68 252.23-26.95 258.88-26.95ZM252.53-7L255.48-7Q256.93-7 257.66-7.35 258.38-7.7 258.63-8.9L258.63-8.9 260.53-19.35 257.48-19.35Q256.08-19.35 255.31-19 254.53-18.65 254.38-17.5L254.38-17.5 252.53-7ZM223.08-12.05L243.03-12.05Q242.83-10.5 242.78-9.95L242.78-9.95 223.08-12.05ZM223.98-16.85L243.98-16.85 243.53-14.75 223.98-16.85ZM223.28-7.25L242.73-7.25Q242.73-6.45 242.93-5.15L242.93-5.15 223.28-7.25ZM225.98-21.65L245.73-21.65Q245.13-20.35 244.88-19.65L244.88-19.65 225.98-21.65ZM227.63-2.4L243.78-2.4Q244.38-1.2 245.08-0.55L245.08-0.55 227.63-2.4ZM232.68-26.45L250.08-26.45Q248.88-25.75 248.03-24.8L248.03-24.8 232.68-26.45ZM303.88 0L297.08 0 291.93-9.9 291.73-9.9 289.98 0 281.58 0 286.18-26.45 292.98-26.45 298.18-16.6 298.48-16.6 300.18-26.45 308.53-26.45 303.88 0ZM280.33-2.4L279.93-0.15 258.73-2.4 280.33-2.4ZM282.03-12.05L281.63-9.8 260.43-12.05 282.03-12.05ZM282.88-16.85L282.48-14.6 261.28-16.85 282.88-16.85ZM283.73-21.65L283.33-19.4 262.13-21.65 283.73-21.65ZM284.53-26.45L284.18-24.2 262.98-26.45 284.53-26.45ZM281.18-7.25L280.78-5 259.58-7.25 281.18-7.25Z" opacity="1" transform="matrix(1,0,0,1,0,0)" fill="black" class="wordmark-text-0" id="SvgjsPath1061" stroke-width="5" stroke="black" stroke-linejoin="round"></path></svg></g></svg></g></svg></g></svg></g></svg></g></svg></g></svg></g></mask><g mask="url(#9ef4aa50-e4f7-4eed-a0ba-4bcd450cd241)"><g><path d="M375.706 104.164l-22.267 126.053c-30.696 11.322-61.517 16.983-92.464 16.983-30.947 0-53.264-6.164-66.951-18.493-13.738-12.329-20.606-31.325-20.607-56.988v0c0-10.819 1.761-26.796 5.284-47.93v0c7.548-43.779 20.883-75.355 40.005-94.729 19.122-19.373 50.824-29.06 95.106-29.06v0c9.561 0 21.512 1.006 35.853 3.019 14.341 2.013 24.909 4.277 31.702 6.794v0l-20.757 57.742c-18.87-3.522-36.155-5.284-51.855-5.283-15.75 0-27.022 1.258-33.816 3.774-6.793 2.516-10.819 7.548-12.077 15.096v0l-18.493 106.805h23.777c8.555 0 14.92-0.956 19.097-2.868 4.126-1.862 6.818-6.189 8.076-12.982v0l1.887-10.19h-18.115l10.19-57.743zM169.266 114.354l-1.132 7.548c-0.503 2.013-1.006 4.78-1.51 8.303v0l-148.32-15.851zM14.153 150.584h149.829c-0.755 5.787-1.132 11.071-1.132 15.851v0zM27.362 78.123h150.962l-4.529 15.473zM19.059 186.815h144.168c1.006 7.045 1.887 12.329 2.642 15.851v0zM45.1 41.892h148.697c-3.522 6.542-6.038 11.574-7.548 15.096v0zM55.29 223.424h119.26c3.271 5.787 7.045 10.442 11.322 13.963v0zM97.182 5.661h132.469c-7.296 4.529-12.958 8.68-16.984 12.454v0z" fill="#374151" fill-rule="nonzero" stroke="none" stroke-width="1" stroke-linecap="butt" stroke-linejoin="miter" stroke-miterlimit="10" stroke-dasharray="" stroke-dashoffset="0" font-family="none" font-weight="none" font-size="none" text-anchor="none" style="mix-blend-mode: normal" data-fill-palette-color="tertiary"></path></g></g><g transform="matrix(1,0,0,1,0,100.58338214891322)"><svg viewBox="0 0 395.52 46.03323570217357" height="46.03323570217357" width="395.52"><g><svg viewBox="0 0 395.52 46.03323570217357" height="46.03323570217357" width="395.52"><g><svg viewBox="0 0 395.52 46.03323570217357" height="46.03323570217357" width="395.52"><g><svg viewBox="0 0 395.52 46.03323570217357" height="46.03323570217357" width="395.52"><g id="textblocktransform"><svg viewBox="0 0 395.52 46.03323570217357" height="46.03323570217357" width="395.52" id="textblock"><g><svg viewBox="0 0 395.52 46.03323570217357" height="46.03323570217357" width="395.52"><g transform="matrix(1,0,0,1,0,0)"><svg width="395.52" viewBox="-13.8 -35 325.33 38.75" height="46.03323570217357" data-palette-color="#374151"><path d="M37.1-18.2L34.15-1.5Q28.05 0.75 21.9 0.75 15.75 0.75 13.03-1.7 10.3-4.15 10.3-9.25L10.3-9.25Q10.3-11.4 11-15.6L11-15.6Q12.5-24.3 16.3-28.15 20.1-32 28.9-32L28.9-32Q30.8-32 33.65-31.6 36.5-31.2 37.85-30.7L37.85-30.7 35.1-23.05Q31.35-23.75 28.23-23.75 25.1-23.75 23.75-23.25 22.4-22.75 22.15-21.25L22.15-21.25 19.7-7.1 22.85-7.1Q24.55-7.1 25.38-7.48 26.2-7.85 26.45-9.2L26.45-9.2 26.7-10.55 24.3-10.55 25.65-18.2 37.1-18.2ZM9.75-16.85L9.6-15.85Q9.5-15.45 9.4-14.75L9.4-14.75-10.25-16.85 9.75-16.85ZM-10.8-12.05L9.05-12.05Q8.9-10.9 8.9-9.95L8.9-9.95-10.8-12.05ZM-9.05-21.65L10.95-21.65 10.35-19.6-9.05-21.65ZM-10.15-7.25L8.95-7.25Q9.15-5.85 9.3-5.15L9.3-5.15-10.15-7.25ZM-6.7-26.45L13-26.45Q12.3-25.15 12-24.45L12-24.45-6.7-26.45ZM-5.35-2.4L10.45-2.4Q11.1-1.25 11.95-0.55L11.95-0.55-5.35-2.4ZM0.2-31.25L17.75-31.25Q16.3-30.35 15.5-29.6L15.5-29.6 0.2-31.25ZM57.3 0L48.55 0 53.15-26.45 61.95-26.45 57.3 0ZM47.3-2.4L46.9-0.15 25.7-2.4 47.3-2.4ZM49-12.05L48.6-9.8 27.4-12.05 49-12.05ZM49.85-16.85L49.45-14.6 28.25-16.85 49.85-16.85ZM50.7-21.65L50.3-19.4 29.1-21.65 50.7-21.65ZM51.5-26.45L51.15-24.2 29.95-26.45 51.5-26.45ZM48.15-7.25L47.75-5 26.55-7.25 48.15-7.25ZM95.5-26.45L94.15-18.95 88.75-18.95 85.45 0 76.65 0 79.95-18.95 74.4-18.95 75.75-26.45 95.5-26.45ZM75.55-2.4L75.15-0.15 53.95-2.4 75.55-2.4ZM77.25-12.05L76.85-9.8 55.65-12.05 77.25-12.05ZM78.1-16.85L77.7-14.6 56.5-16.85 78.1-16.85ZM73.3-21.65L72.9-19.4 51.7-21.65 73.3-21.65ZM74.1-26.45L73.75-24.2 52.55-26.45 74.1-26.45ZM76.4-7.25L76-5 54.8-7.25 76.4-7.25ZM118.49-6.2L118.49-6.2 113.64-6.2 112.54 0 104.14 0 108.74-26.45 121.44-26.45Q128.69-26.45 128.69-19.6L128.69-19.6Q128.69-16.5 127.79-13.9 126.89-11.3 125.84-9.8 124.79-8.3 122.87-7.25 120.94-6.2 118.49-6.2ZM118.99-14.4L119.59-17.8Q119.59-17.85 119.64-18.1L119.64-18.1Q119.64-19.15 117.49-19.15L117.49-19.15 115.89-19.15 114.84-12.95 116.39-12.95Q117.54-12.95 118.19-13.23 118.84-13.5 118.99-14.4L118.99-14.4ZM102.89-2.4L102.49-0.15 81.29-2.4 102.89-2.4ZM104.59-12.05L104.19-9.8 82.99-12.05 104.59-12.05ZM105.44-16.85L105.04-14.6 83.84-16.85 105.44-16.85ZM106.29-21.65L105.89-19.4 84.69-21.65 106.29-21.65ZM107.09-26.45L106.74-24.2 85.54-26.45 107.09-26.45ZM103.74-7.25L103.34-5 82.14-7.25 103.74-7.25ZM157.49-15.55L156.64-10.75 149.19-10.75 148.59-7.35 157.84-7.35 156.54 0 138.89 0 143.49-26.45 161.09-26.45 158.74-18.95 150.59-18.95 149.99-15.55 157.49-15.55ZM137.64-2.4L137.24-0.15 116.04-2.4 137.64-2.4ZM139.34-12.05L138.94-9.8 117.74-12.05 139.34-12.05ZM140.19-16.85L139.79-14.6 118.59-16.85 140.19-16.85ZM141.04-21.65L140.64-19.4 119.44-21.65 141.04-21.65ZM141.84-26.45L141.49-24.2 120.29-26.45 141.84-26.45ZM138.49-7.25L138.09-5 116.89-7.25 138.49-7.25ZM176.29-26.45L188.99-26.45Q196.29-26.45 196.29-19.85L196.29-19.85Q196.29-16.85 195.09-13.63 193.89-10.4 191.04-8.8L191.04-8.8 193.89 0 184.54 0 182.64-7.7 181.44-7.7 180.09 0 171.69 0 176.29-26.45ZM186.84-16.05L187.14-17.8Q187.14-17.85 187.19-18.3L187.19-18.3Q187.19-19.15 184.54-19.15L184.54-19.15 183.44-19.15 182.64-14.55 184.24-14.55Q186.54-14.55 186.84-16.05L186.84-16.05ZM170.44-2.4L170.04-0.15 148.84-2.4 170.44-2.4ZM172.14-12.05L171.74-9.8 150.54-12.05 172.14-12.05ZM172.99-16.85L172.59-14.6 151.39-16.85 172.99-16.85ZM173.84-21.65L173.44-19.4 152.24-21.65 173.84-21.65ZM174.64-26.45L174.29-24.2 153.09-26.45 174.64-26.45ZM171.29-7.25L170.89-5 149.69-7.25 171.29-7.25ZM206.54-0.15L185.64-2.4 207.24-2.4 206.54-0.15ZM189.49-21.65L211.04-21.65Q210.74-20.85 210.39-19.4L210.39-19.4 189.49-21.65ZM209.79-15L209.79-15 209.79-14.6 188.59-16.85 209.89-16.85Q209.79-15.65 209.79-15ZM208.84-7.25L208.14-5.05 187.29-7.25 208.84-7.25ZM192.94-26.45L214.49-26.45Q213.14-25.45 212.44-24.35L212.44-24.35 192.94-26.45ZM190.54-12.05L210.24-12.05Q210.69-10.75 211.69-9.8L211.69-9.8 190.54-12.05ZM232.59-25.9L230.19-18.6Q226.79-19.4 224.39-19.4 221.99-19.4 220.84-19.25L220.84-19.25 220.59-17.8 223.09-17.5Q231.14-16.45 231.14-10.85L231.14-10.85Q231.14-10.2 230.84-8.43 230.54-6.65 229.84-5 229.14-3.35 228.06-2.33 226.99-1.3 225.96-0.68 224.94-0.05 223.34 0.2L223.34 0.2Q220.84 0.6 216.66 0.6 212.49 0.6 208.24-0.55L208.24-0.55 210.69-7.95Q214.59-6.85 217.51-6.85 220.44-6.85 221.64-7L221.64-7 221.89-8.6 218.74-8.95Q214.69-9.4 212.99-10.85 211.29-12.3 211.29-15L211.29-15Q211.29-16 211.54-17.5L211.54-17.5Q212.54-22.85 215.14-24.9 217.74-26.95 223.06-26.95 228.39-26.95 232.59-25.9L232.59-25.9ZM258.88-26.95L258.88-26.95Q264.28-26.95 266.58-24.88 268.88-22.8 268.88-18.4L268.88-18.4Q268.88-16.25 268.33-13.2L268.33-13.2Q267.08-6 263.93-2.7 260.78 0.6 254.03 0.6L254.03 0.6Q248.73 0.6 246.48-1.48 244.23-3.55 244.23-7.9L244.23-7.9Q244.23-10.15 244.78-13.2L244.78-13.2Q246.03-20.4 249.13-23.68 252.23-26.95 258.88-26.95ZM252.53-7L255.48-7Q256.93-7 257.66-7.35 258.38-7.7 258.63-8.9L258.63-8.9 260.53-19.35 257.48-19.35Q256.08-19.35 255.31-19 254.53-18.65 254.38-17.5L254.38-17.5 252.53-7ZM223.08-12.05L243.03-12.05Q242.83-10.5 242.78-9.95L242.78-9.95 223.08-12.05ZM223.98-16.85L243.98-16.85 243.53-14.75 223.98-16.85ZM223.28-7.25L242.73-7.25Q242.73-6.45 242.93-5.15L242.93-5.15 223.28-7.25ZM225.98-21.65L245.73-21.65Q245.13-20.35 244.88-19.65L244.88-19.65 225.98-21.65ZM227.63-2.4L243.78-2.4Q244.38-1.2 245.08-0.55L245.08-0.55 227.63-2.4ZM232.68-26.45L250.08-26.45Q248.88-25.75 248.03-24.8L248.03-24.8 232.68-26.45ZM303.88 0L297.08 0 291.93-9.9 291.73-9.9 289.98 0 281.58 0 286.18-26.45 292.98-26.45 298.18-16.6 298.48-16.6 300.18-26.45 308.53-26.45 303.88 0ZM280.33-2.4L279.93-0.15 258.73-2.4 280.33-2.4ZM282.03-12.05L281.63-9.8 260.43-12.05 282.03-12.05ZM282.88-16.85L282.48-14.6 261.28-16.85 282.88-16.85ZM283.73-21.65L283.33-19.4 262.13-21.65 283.73-21.65ZM284.53-26.45L284.18-24.2 262.98-26.45 284.53-26.45ZM281.18-7.25L280.78-5 259.58-7.25 281.18-7.25Z" opacity="1" transform="matrix(1,0,0,1,0,0)" fill="#374151" class="wordmark-text-0" data-fill-palette-color="primary" id="text-0"></path></svg></g></svg></g></svg></g></svg></g></svg></g></svg></g></svg></g></svg></g><defs></defs></svg><rect width="395.52" height="247.2" fill="none" stroke="none" visibility="hidden"></rect></g></svg></g></svg>